<?xml version="1.0" encoding="UTF-8" standalone="no"?>
<!DOCTYPE svg PUBLIC "-//W3C//DTD SVG 1.1//EN" "http://www.w3.org/Graphics/SVG/1.1/DTD/svg11.dtd">
<svg width="100%" height="100%" viewBox="0 0 500 500" version="1.1" xmlns="http://www.w3.org/2000/svg" xmlns:xlink="http://www.w3.org/1999/xlink" xml:space="preserve" xmlns:serif="http://www.serif.com/" style="fill-rule:evenodd;clip-rule:evenodd;stroke-linejoin:round;stroke-miterlimit:2;">
    <g transform="matrix(0.906101,0,0,0.906101,64.1436,-54.5326)">
        <path d="M205.117,132.498C267.557,132.498 318.25,183.191 318.25,245.631C318.25,308.071 267.557,358.764 205.117,358.764C142.677,358.764 91.983,308.071 91.983,245.631C91.983,183.191 142.677,132.498 205.117,132.498ZM205.117,163.626C250.376,163.626 287.121,200.372 287.121,245.631C287.121,290.891 250.376,327.636 205.117,327.636C159.857,327.636 123.112,290.891 123.112,245.631C123.112,200.372 159.857,163.626 205.117,163.626Z" style="fill:rgb(255,97,0);"/>
    </g>
    <g transform="matrix(0.434332,0,0,0.434332,29.5884,-6.68936)">
        <path d="M911.568,535.191C911.568,461.836 852.013,402.281 778.657,402.281L236.289,402.281C162.934,402.281 103.379,461.836 103.379,535.191L103.379,820.304C103.379,893.66 162.934,953.215 236.289,953.215L778.657,953.215C852.013,953.215 911.568,893.66 911.568,820.304L911.568,535.191Z" style="fill:rgb(255,178,0);"/>
    </g>
    <g transform="matrix(0.754971,0.000267662,-0.000545071,1.53744,-26.0801,-942.612)">
        <path d="M199.433,771.594L239.14,771.594L239.14,778.381C249.963,773.282 262.101,770.732 275.556,770.732C292.229,770.732 304.953,774.18 313.728,781.074C322.649,774.108 335.373,770.625 351.899,770.625C357.164,770.625 362.136,771.002 366.816,771.756C371.496,772.51 375.518,773.695 378.882,775.311C382.246,776.927 384.915,779.027 386.889,781.613C388.863,784.198 389.851,787.322 389.851,790.985L389.851,826.857L350.144,826.857L350.144,799.603C350.144,796.802 349.742,794.504 348.937,792.708C348.133,790.913 346.963,789.513 345.427,788.507C343.892,787.502 342.1,786.819 340.053,786.46C338.005,786.101 335.811,785.922 333.471,785.922C320.748,785.922 314.386,790.482 314.386,799.603L314.386,826.857L274.679,826.857L274.679,799.603C274.679,796.802 274.313,794.486 273.582,792.655C272.851,790.823 271.79,789.369 270.401,788.292C269.012,787.214 267.22,786.478 265.026,786.083C262.833,785.688 260.273,785.491 257.348,785.491C254.862,785.491 252.522,785.67 250.328,786.029C248.135,786.389 246.197,787.089 244.515,788.13C242.833,789.171 241.517,790.608 240.566,792.439C239.616,794.27 239.14,796.658 239.14,799.603L239.14,826.857L199.433,826.857L199.433,771.594Z" style="fill:white;fill-rule:nonzero;"/>
        <path d="M453.908,819.317L399.503,771.594L445.572,771.594L475.626,799.926L504.803,771.594L550.433,771.594L460.05,854.435L415.517,854.435L453.908,819.317Z" style="fill:white;fill-rule:nonzero;"/>
    </g>
</svg>
