<?xml version="1.0" encoding="UTF-8" standalone="no"?>
<!DOCTYPE svg PUBLIC "-//W3C//DTD SVG 1.1//EN" "http://www.w3.org/Graphics/SVG/1.1/DTD/svg11.dtd">
<svg width="100%" height="100%" viewBox="0 0 807 276" version="1.1" xmlns="http://www.w3.org/2000/svg" xmlns:xlink="http://www.w3.org/1999/xlink" xml:space="preserve" xmlns:serif="http://www.serif.com/" style="fill-rule:evenodd;clip-rule:evenodd;stroke-linejoin:round;stroke-miterlimit:2;">
    <g id="Artboard1" transform="matrix(1,0,0,1,-79.8152,-355.141)">
        <rect x="79.815" y="355.141" width="806.098" height="275.162" style="fill:none;"/>
        <clipPath id="_clip1">
            <rect x="79.815" y="355.141" width="806.098" height="275.162"/>
        </clipPath>
        <g clip-path="url(#_clip1)">
            <g transform="matrix(0.729449,0,0,0.729449,72.3019,258.631)">
                <path d="M205.117,132.498C267.557,132.498 318.25,183.191 318.25,245.631C318.25,308.071 267.557,358.764 205.117,358.764C142.677,358.764 91.983,308.071 91.983,245.631C91.983,183.191 142.677,132.498 205.117,132.498ZM205.117,163.626C250.376,163.626 287.121,200.372 287.121,245.631C287.121,290.891 250.376,327.636 205.117,327.636C159.857,327.636 123.112,290.891 123.112,245.631C123.112,200.372 159.857,163.626 205.117,163.626Z" style="fill:rgb(255,97,0);"/>
            </g>
            <g transform="matrix(0.349655,0,0,0.349655,44.4835,297.147)">
                <path d="M911.568,535.191C911.568,461.836 852.013,402.281 778.657,402.281L236.289,402.281C162.934,402.281 103.379,461.836 103.379,535.191L103.379,820.304C103.379,893.66 162.934,953.215 236.289,953.215L778.657,953.215C852.013,953.215 911.568,893.66 911.568,820.304L911.568,535.191Z" style="fill:rgb(255,178,0);"/>
            </g>
            <g transform="matrix(2.48242,0,0,1.69599,-236.41,-711.102)">
                <path d="M274.483,713.981L281.756,713.981L281.756,759.865L274.483,759.865L274.483,755.06C271.5,759.143 268.292,761.184 264.859,761.184C260.525,761.184 256.942,758.891 254.11,754.306C251.299,749.627 249.894,743.785 249.894,736.782C249.894,729.904 251.299,724.172 254.11,719.587C256.921,715.002 260.439,712.709 264.666,712.709C268.314,712.709 271.586,714.908 274.483,719.305L274.483,713.981ZM257.296,736.782C257.296,741.179 258.101,744.759 259.71,747.522C261.362,750.318 263.443,751.715 265.954,751.715C268.636,751.715 270.803,750.365 272.455,747.664C274.107,744.869 274.933,741.32 274.933,737.017C274.933,732.715 274.107,729.166 272.455,726.371C270.803,723.639 268.657,722.272 266.018,722.272C263.529,722.272 261.448,723.654 259.774,726.418C258.122,729.213 257.296,732.668 257.296,736.782Z" style="fill:rgb(255,97,0);fill-rule:nonzero;"/>
                <g transform="matrix(1,0,0,1,-3.22267,0)">
                    <path d="M298.138,713.981L298.138,740.315C298.138,747.915 300.187,751.715 304.285,751.715C308.384,751.715 310.433,747.915 310.433,740.315L310.433,713.981L317.674,713.981L317.674,740.55C317.674,744.225 317.363,747.397 316.741,750.066C316.14,752.453 315.099,754.604 313.619,756.52C311.173,759.629 308.062,761.184 304.285,761.184C300.531,761.184 297.43,759.629 294.984,756.52C293.482,754.604 292.42,752.453 291.798,750.066C291.197,747.931 290.897,744.759 290.897,740.55L290.897,713.981L298.138,713.981Z" style="fill:rgb(255,97,0);fill-rule:nonzero;"/>
                </g>
                <g transform="matrix(1,0,0,1,-5.63967,0)">
                    <path d="M351.21,715.96L351.21,730.045C349.558,727.093 348.078,725.067 346.769,723.968C345.481,722.838 343.969,722.272 342.231,722.272C339.506,722.272 337.242,723.67 335.44,726.465C333.638,729.26 332.736,732.762 332.736,736.97C332.736,741.273 333.605,744.806 335.343,747.57C337.103,750.333 339.345,751.715 342.07,751.715C343.808,751.715 345.342,751.166 346.672,750.066C347.96,748.999 349.472,746.926 351.21,743.848L351.21,757.839C348.271,760.069 345.331,761.184 342.392,761.184C337.543,761.184 333.487,758.891 330.226,754.306C326.965,749.689 325.334,743.958 325.334,737.112C325.334,730.265 326.986,724.486 330.29,719.776C333.595,715.065 337.65,712.709 342.456,712.709C345.546,712.709 348.464,713.793 351.21,715.96Z" style="fill:rgb(255,97,0);fill-rule:nonzero;"/>
                </g>
                <g transform="matrix(1,0,0,1,-2.417,0)">
                    <path d="M365.693,723.874L365.693,759.865L358.452,759.865L358.452,723.874L353.751,723.874L353.751,713.981L358.452,713.981L358.452,697.164L365.693,697.164L365.693,713.981L370.52,713.981L370.52,723.874L365.693,723.874Z" style="fill:rgb(255,97,0);fill-rule:nonzero;"/>
                </g>
                <g transform="matrix(1,0,0,1,-2.417,0)">
                    <path d="M383.491,713.981L383.491,759.865L376.25,759.865L376.25,713.981L383.491,713.981ZM375.156,694.902C375.156,693.05 375.617,691.448 376.539,690.097C377.462,688.747 378.567,688.072 379.854,688.072C381.163,688.072 382.279,688.747 383.202,690.097C384.124,691.416 384.586,693.034 384.586,694.95C384.586,696.865 384.124,698.498 383.202,699.849C382.3,701.199 381.195,701.874 379.887,701.874C378.578,701.874 377.462,701.199 376.539,699.849C375.617,698.498 375.156,696.85 375.156,694.902Z" style="fill:rgb(255,97,0);fill-rule:nonzero;"/>
                </g>
                <g transform="matrix(1,0,0,1,-5.23683,0)">
                    <path d="M391.183,736.593C391.183,729.967 392.803,724.329 396.043,719.681C399.283,715.033 403.231,712.709 407.887,712.709C412.565,712.709 416.534,715.049 419.795,719.729C423.014,724.408 424.623,730.155 424.623,736.97C424.623,743.848 423.003,749.611 419.763,754.259C416.502,758.876 412.5,761.184 407.758,761.184C403.059,761.184 399.122,758.829 395.947,754.118C392.771,749.47 391.183,743.628 391.183,736.593ZM398.586,736.782C398.586,741.367 399.423,744.994 401.096,747.664C402.813,750.365 405.076,751.715 407.887,751.715C410.719,751.715 412.983,750.38 414.678,747.711C416.373,745.041 417.221,741.477 417.221,737.017C417.221,732.558 416.373,728.993 414.678,726.324C412.961,723.623 410.698,722.272 407.887,722.272C405.119,722.272 402.877,723.623 401.161,726.324C399.444,729.025 398.586,732.511 398.586,736.782Z" style="fill:rgb(255,97,0);fill-rule:nonzero;"/>
                </g>
                <g transform="matrix(1,0,0,1,-6.84816,0)">
                    <path d="M432.283,713.981L439.557,713.981L439.557,718.221C442.088,714.547 444.942,712.709 448.118,712.709C451.765,712.709 454.608,714.39 456.646,717.75C458.406,720.608 459.286,725.272 459.286,731.741L459.286,759.865L452.012,759.865L452.012,734.238C452.012,729.716 451.583,726.591 450.725,724.863C449.888,723.105 448.364,722.225 446.154,722.225C443.751,722.225 442.045,723.387 441.037,725.711C440.05,728.004 439.557,732.008 439.557,737.724L439.557,759.865L432.283,759.865L432.283,713.981Z" style="fill:rgb(255,97,0);fill-rule:nonzero;"/>
                </g>
            </g>
            <g transform="matrix(0.607783,0.000215479,-0.000438805,1.2377,-0.331967,-456.311)">
                <path d="M199.433,771.594L239.14,771.594L239.14,778.381C249.963,773.282 262.101,770.732 275.556,770.732C292.229,770.732 304.953,774.18 313.728,781.074C322.649,774.108 335.373,770.625 351.899,770.625C357.164,770.625 362.136,771.002 366.816,771.756C371.496,772.51 375.518,773.695 378.882,775.311C382.246,776.927 384.915,779.027 386.889,781.613C388.863,784.198 389.851,787.322 389.851,790.985L389.851,826.857L350.144,826.857L350.144,799.603C350.144,796.802 349.742,794.504 348.937,792.708C348.133,790.913 346.963,789.513 345.427,788.507C343.892,787.502 342.1,786.819 340.053,786.46C338.005,786.101 335.811,785.922 333.471,785.922C320.748,785.922 314.386,790.482 314.386,799.603L314.386,826.857L274.679,826.857L274.679,799.603C274.679,796.802 274.313,794.486 273.582,792.655C272.851,790.823 271.79,789.369 270.401,788.292C269.012,787.214 267.22,786.478 265.026,786.083C262.833,785.688 260.273,785.491 257.348,785.491C254.862,785.491 252.522,785.67 250.328,786.029C248.135,786.389 246.197,787.089 244.515,788.13C242.833,789.171 241.517,790.608 240.566,792.439C239.616,794.27 239.14,796.658 239.14,799.603L239.14,826.857L199.433,826.857L199.433,771.594Z" style="fill:white;fill-rule:nonzero;"/>
                <path d="M453.908,819.317L399.503,771.594L445.572,771.594L475.626,799.926L504.803,771.594L550.433,771.594L460.05,854.435L415.517,854.435L453.908,819.317Z" style="fill:white;fill-rule:nonzero;"/>
            </g>
        </g>
    </g>
</svg>
